<?xml version="1.0" standalone="no"?>
<!DOCTYPE svg PUBLIC "-//W3C//DTD SVG 20010904//EN"
 "http://www.w3.org/TR/2001/REC-SVG-20010904/DTD/svg10.dtd">
<svg version="1.0" xmlns="http://www.w3.org/2000/svg"
 width="710.000000pt" height="710.000000pt" viewBox="0 0 710.000000 710.000000"
 preserveAspectRatio="xMidYMid meet">

<g transform="translate(0.000000,710.000000) scale(0.100000,-0.100000)"
fill="#000000" stroke="none">
<path d="M6593 5779 c-69 -13 -202 -81 -293 -150 -113 -84 -347 -318 -450
-449 -46 -57 -134 -182 -197 -277 -63 -95 -118 -173 -123 -173 -22 0 -29 42
-23 132 10 158 -28 197 -177 182 -166 -16 -212 -12 -253 18 -19 15 -59 67 -89
114 -115 185 -163 228 -235 206 -21 -6 -73 -37 -116 -68 -77 -55 -80 -56 -135
-52 -62 4 -208 69 -226 100 -7 12 -6 28 3 54 12 32 11 39 -6 63 -43 59 -270
141 -400 144 -66 2 -75 0 -99 -24 -25 -26 -26 -30 -27 -157 -2 -129 -3 -132
-29 -159 -26 -25 -33 -27 -110 -26 -81 0 -203 26 -214 45 -4 5 5 22 19 36 83
87 42 151 -158 248 -117 57 -204 79 -249 64 -42 -14 -67 -41 -104 -116 -44
-87 -147 -239 -176 -258 -44 -28 -62 -20 -154 72 -116 115 -192 154 -347 177
-298 47 -409 -16 -569 -324 -113 -217 -169 -258 -224 -165 -44 75 -68 100
-117 118 -89 34 -189 -14 -240 -114 -29 -58 -49 -156 -75 -374 -22 -185 -35
-253 -52 -273 -20 -24 -59 -13 -124 35 -102 73 -117 82 -149 82 -71 -1 -176
-75 -217 -154 -30 -58 -21 -127 24 -204 42 -70 42 -71 -42 -125 -151 -98 -270
-223 -328 -346 -35 -73 -36 -76 -45 -260 -7 -150 -6 -222 8 -371 56 -621 186
-935 521 -1260 188 -183 362 -303 619 -430 490 -241 941 -330 1920 -381 247
-13 845 -7 1105 11 762 52 1182 167 1652 452 274 167 539 400 739 653 177 222
294 479 353 776 32 159 59 381 53 438 -3 25 1 62 10 88 10 29 14 71 12 127 -4
74 -9 92 -47 169 -68 138 -216 277 -407 385 -149 84 -149 84 -156 124 -3 20
-12 44 -19 53 -38 46 -184 85 -332 89 -87 3 -118 14 -118 42 0 23 79 173 133
254 78 116 220 247 496 460 292 223 409 332 435 402 23 60 16 87 -36 144 -102
111 -265 163 -415 133z m267 -90 c224 -107 193 -185 -188 -475 -384 -293 -508
-407 -618 -568 -60 -89 -74 -94 -74 -29 0 42 -41 90 -88 103 -20 5 -90 10
-154 10 -94 0 -118 3 -118 14 0 23 195 309 299 439 166 207 398 414 545 489
97 50 133 58 231 55 80 -2 100 -7 165 -38z m-3699 -119 c89 -32 223 -111 233
-136 9 -25 8 -28 -29 -67 -51 -54 -46 -86 16 -117 101 -52 265 -65 339 -27 67
33 80 67 80 204 0 61 3 118 6 127 13 35 178 10 336 -50 81 -31 95 -45 79 -80
-16 -37 -14 -68 9 -97 26 -33 25 -41 -2 -26 -13 7 -23 11 -23 9 0 -1 -24 1
-54 5 -173 24 -303 -4 -366 -77 -19 -23 -35 -47 -35 -53 0 -6 -40 -30 -90 -54
-107 -51 -124 -71 -152 -186 -21 -82 -21 -86 -4 -158 10 -42 15 -85 11 -102
-9 -38 -64 -188 -104 -280 -29 -69 -30 -70 -79 -81 -59 -14 -125 -63 -156
-118 -85 -154 -83 -149 -112 -256 -17 -61 -12 -161 12 -249 28 -100 18 -180
-36 -297 -42 -89 -52 -94 -100 -50 -47 43 -175 108 -245 125 -77 19 -110 61
-49 61 35 0 100 35 121 66 10 15 46 57 79 93 34 37 67 78 74 92 20 35 34 176
32 322 0 107 -4 135 -21 170 -35 72 -100 136 -166 164 -120 50 -141 56 -207
55 -67 0 -68 0 -69 26 -2 124 -18 251 -35 284 -38 74 -127 168 -208 220 -100
64 -169 82 -286 73 -47 -3 -103 -7 -125 -9 -22 -1 -49 -3 -61 -4 -30 -3 -113
-70 -135 -111 -11 -20 -37 -65 -59 -101 -21 -36 -39 -73 -39 -82 -1 -10 -8
-37 -16 -61 -8 -23 -15 -56 -16 -72 -3 -53 11 -163 26 -206 18 -51 20 -126 3
-131 -7 -3 -46 4 -88 13 -41 10 -88 18 -103 19 -34 0 -147 -32 -147 -42 0 -12
23 -10 70 7 23 8 61 15 84 15 55 0 191 -35 231 -60 41 -25 128 -117 148 -157
l16 -30 -107 -5 c-91 -4 -115 -9 -160 -32 -51 -26 -117 -84 -174 -154 l-26
-32 -115 0 c-110 0 -117 -1 -183 -34 -79 -40 -113 -72 -178 -171 -83 -125
-115 -294 -78 -410 15 -49 17 -71 11 -120 -5 -33 -12 -101 -15 -152 l-7 -92
-71 36 c-105 52 -205 116 -211 133 -2 8 0 33 5 55 17 71 12 104 -26 168 -70
118 -81 190 -41 245 13 17 73 71 132 119 135 110 159 147 152 243 -6 75 -35
147 -101 245 -54 80 -70 125 -62 168 8 43 58 103 107 127 59 30 100 26 150
-15 47 -40 112 -79 147 -90 36 -10 77 12 101 55 22 39 26 64 76 432 19 145 40
211 80 254 37 38 85 50 143 34 37 -9 46 -19 81 -79 60 -102 102 -112 191 -47
39 28 57 56 128 193 94 180 148 249 224 287 46 23 64 26 152 26 230 0 337 -41
478 -182 83 -84 89 -88 130 -88 34 0 52 7 81 31 41 34 155 199 187 273 43 96
77 105 211 56z m1658 -249 c10 -6 29 -27 43 -48 47 -70 138 -213 135 -213 -1
0 -81 27 -177 61 -96 33 -190 65 -207 71 -18 6 -33 14 -33 17 0 3 17 16 38 29
20 12 59 38 86 57 49 35 83 43 115 26z m-582 -88 c65 -34 155 -71 195 -79 224
-44 426 -125 532 -211 32 -26 90 -90 130 -142 69 -92 113 -133 85 -80 -6 13
-15 26 -18 29 -4 3 -29 34 -58 70 -65 83 -145 159 -203 192 -70 41 -327 130
-425 148 -58 10 -161 46 -190 67 -19 13 -19 14 5 9 59 -11 193 -50 300 -87 63
-22 129 -44 145 -48 45 -11 331 -119 391 -148 97 -45 132 -85 172 -203 20 -58
53 -239 46 -249 -2 -2 -22 4 -46 13 -41 15 -98 18 -98 5 0 -3 26 -16 57 -27
43 -16 59 -18 65 -9 4 7 8 9 8 5 0 -5 -1 -9 -2 -11 -2 -2 11 -20 29 -40 17
-19 34 -49 38 -66 4 -17 11 -31 16 -31 15 0 10 14 -27 76 -33 55 -34 57 -8 34
28 -26 84 -133 84 -162 0 -28 -53 -39 -100 -21 -38 15 -40 18 -40 57 0 53 -27
96 -87 137 l-48 34 -130 1 c-168 0 -218 21 -257 107 -10 20 -24 37 -33 37 -34
0 -7 -66 47 -116 53 -49 108 -66 237 -70 130 -4 172 -19 208 -73 13 -19 23
-49 23 -66 0 -27 -4 -34 -26 -38 -58 -11 -109 42 -99 102 5 31 3 40 -11 45
-13 5 -24 0 -36 -16 -17 -23 -20 -23 -235 -25 -120 0 -249 3 -288 8 -254 32
-340 50 -470 97 -55 20 -102 39 -105 42 -3 4 -12 9 -20 12 -34 13 -139 100
-164 137 -35 50 -44 107 -22 149 20 38 20 42 2 42 -8 0 -43 -38 -78 -84 -82
-110 -132 -238 -133 -341 0 -38 4 -78 9 -88 8 -17 5 -18 -30 -10 -22 4 -60 8
-86 7 l-47 -1 19 46 c10 25 33 84 52 131 55 138 63 185 44 261 -9 35 -14 75
-11 89 29 151 41 168 155 215 54 22 77 38 89 59 52 94 107 117 271 114 108 -3
119 -5 177 -35z m-2132 -155 c51 -11 60 -16 152 -75 54 -35 151 -140 179 -196
28 -54 41 -331 18 -369 -5 -7 -9 -54 -10 -103 -1 -102 -7 -116 -87 -201 -27
-29 -62 -71 -79 -94 -28 -38 -33 -41 -44 -25 -7 9 -11 22 -8 28 2 7 0 17 -4
23 -10 16 -101 54 -129 54 -13 0 -54 7 -90 17 -65 16 -67 16 -83 -4 -9 -11
-34 -24 -56 -27 -45 -8 -51 -3 -124 113 -32 50 -34 60 -34 135 0 45 2 86 4 91
3 6 1 12 -5 15 -5 3 -16 -12 -22 -33 -19 -57 -2 -155 38 -220 l32 -52 -64 66
c-35 36 -76 73 -90 83 -22 14 -26 24 -28 70 -1 30 -8 70 -15 88 -14 35 -31
156 -27 198 7 74 74 237 127 310 49 68 94 99 154 105 30 3 78 9 105 13 58 9
120 6 190 -10z m3306 -88 c44 -12 48 -26 42 -148 -9 -166 6 -177 248 -177 232
0 223 7 214 -161 -6 -101 -5 -126 9 -152 24 -46 62 -62 152 -62 131 0 292 -38
317 -74 11 -16 0 -50 -43 -141 -92 -193 -61 -262 167 -370 161 -77 285 -149
322 -187 54 -55 52 -113 -10 -266 -16 -41 -29 -84 -29 -97 0 -26 -53 -74 -135
-121 -27 -16 -74 -45 -103 -65 -173 -121 -720 -304 -1187 -398 -159 -32 -455
-81 -492 -81 -21 0 -23 5 -23 48 0 26 4 63 9 82 21 80 22 90 9 90 -15 0 -62
-47 -169 -165 -40 -44 -82 -83 -94 -86 -18 -5 -186 -19 -538 -43 l-58 -4 -25
56 c-29 65 -29 66 -19 145 7 48 5 61 -10 77 -9 10 -14 23 -10 29 3 6 1 37 -6
70 -6 33 -9 65 -7 71 4 14 133 -157 143 -191 11 -35 43 -86 59 -92 15 -6 80
14 127 38 28 15 95 79 225 216 85 89 189 182 258 228 46 31 58 34 127 36 67 1
82 5 112 28 l36 27 78 -53 c43 -30 109 -71 146 -93 l69 -39 -51 -11 c-101 -23
-136 -67 -105 -131 35 -72 138 -122 293 -144 118 -17 193 7 252 81 23 28 40
40 59 40 27 0 66 36 146 135 57 70 72 103 87 192 12 70 15 75 21 46 4 -18 5
-37 1 -43 -7 -12 8 -63 41 -136 18 -40 30 -53 51 -57 15 -3 47 -22 71 -42 24
-21 46 -34 50 -31 8 8 -37 47 -95 82 -77 46 -109 133 -101 269 5 79 9 89 58
172 28 48 74 122 101 164 44 68 52 87 66 170 21 128 12 266 -21 341 -14 31
-31 58 -38 62 -13 6 -51 29 -130 78 -43 26 -279 88 -336 88 -30 0 -109 -23
-141 -39 -12 -7 -22 -7 -26 -2 -3 5 -19 12 -35 16 -20 4 -30 13 -31 26 -1 10
-3 24 -4 29 -1 6 -3 16 -4 24 0 8 -23 47 -50 88 -27 40 -51 87 -54 103 -3 17
-8 50 -12 75 -11 73 -55 212 -80 256 -14 23 -40 55 -59 72 -34 30 -35 31 -13
38 12 4 47 10 77 14 30 4 57 8 60 9 3 0 21 -4 41 -9z m-1661 -270 c0 -5 -5
-10 -11 -10 -5 0 -7 5 -4 10 3 6 8 10 11 10 2 0 4 -4 4 -10z m37 -61 c11 -11
1 -43 -18 -59 -3 -3 -8 -13 -12 -22 -8 -22 -36 -23 -43 -3 -6 16 39 95 54 95
4 0 13 -5 19 -11z m72 -83 c20 -21 21 -27 9 -47 -24 -43 -31 -47 -53 -35 -37
21 -38 34 -7 84 18 28 23 28 51 -2z m109 -70 c20 -14 49 -28 65 -31 29 -8 34
-24 17 -56 -14 -25 -28 -24 -88 6 -28 14 -55 25 -60 25 -20 0 -22 18 -5 49 10
17 21 31 26 31 4 0 24 -11 45 -24z m1302 4 c8 -5 11 -10 5 -10 -5 0 -17 5 -25
10 -8 5 -10 10 -5 10 6 0 17 -5 25 -10z m-2635 -31 c40 -11 100 -36 163 -67
18 -8 52 -41 76 -73 55 -72 70 -140 62 -270 -14 -236 -28 -285 -99 -345 -18
-15 -48 -50 -67 -78 -23 -33 -51 -58 -79 -72 -62 -30 -101 -16 -189 66 -39 36
-78 73 -89 82 -23 22 -33 35 -63 83 -21 34 -25 52 -25 118 0 42 -3 77 -7 77
-4 0 -12 -19 -19 -42 l-11 -43 -12 30 c-12 28 -10 34 22 80 20 28 43 55 52 62
29 21 100 120 111 154 6 19 10 65 10 102 -1 127 48 168 164 136z m1025 -76 c0
-45 -3 -53 -13 -45 -12 10 -13 34 -8 100 1 7 6 10 11 7 6 -3 10 -31 10 -62z
m522 21 c61 -17 62 -19 43 -81 -5 -16 -145 26 -145 44 0 22 19 53 32 53 7 0
38 -7 70 -16z m-442 -75 c0 -27 -3 -49 -6 -49 -18 0 -42 22 -39 37 14 67 16
72 30 67 10 -4 15 -21 15 -55z m623 26 c48 -13 93 -22 124 -24 11 -1 12 -24 4
-82 -1 -8 -104 8 -169 27 -41 11 -52 19 -48 30 3 9 9 27 12 40 7 28 10 29 77
9z m-538 -39 c13 -9 20 -27 21 -55 0 -23 -1 -41 -4 -41 -2 0 -17 9 -32 20 -23
17 -28 27 -27 55 2 38 12 43 42 21z m895 0 c25 -3 60 -5 78 -5 41 -1 42 -21 1
-56 -30 -25 -37 -26 -135 -24 l-104 1 0 49 0 48 58 -5 c31 -2 77 -6 102 -8z
m376 -18 c-10 -41 -63 -66 -153 -74 -60 -5 -83 -3 -83 5 0 24 28 78 41 78 42
1 185 16 188 19 9 8 13 -6 7 -28z m-1491 1 c65 -10 186 -64 226 -101 52 -48
130 -148 150 -192 29 -66 38 -319 14 -366 -13 -25 -15 -46 -10 -91 9 -75 -13
-123 -95 -211 -32 -35 -66 -79 -75 -98 -18 -39 -72 -81 -129 -100 -30 -9 -50
-9 -103 1 -86 17 -134 50 -194 135 -27 38 -63 89 -81 113 -17 24 -38 65 -47
90 -17 48 -20 139 -6 180 6 18 5 23 -6 19 -26 -9 -40 -74 -30 -144 11 -74 34
-117 133 -251 74 -99 116 -138 175 -158 43 -15 57 -46 47 -111 -4 -30 -2 -44
10 -53 9 -8 16 -20 16 -27 0 -8 11 -20 25 -26 14 -6 25 -16 25 -23 0 -6 6 -20
14 -30 13 -18 15 -18 39 -2 51 33 80 19 92 -46 4 -21 16 -42 26 -48 11 -5 19
-16 19 -24 0 -8 9 -19 20 -25 12 -6 19 -19 17 -32 -1 -15 6 -26 23 -34 22 -11
26 -22 30 -76 4 -38 1 -85 -8 -119 l-14 -56 -171 -7 c-264 -10 -1078 22 -1098
43 -6 5 35 190 56 257 4 12 2 25 -4 29 -16 9 -37 -46 -62 -166 -11 -57 -25
-108 -29 -113 -5 -5 -88 1 -192 13 -101 11 -186 21 -189 21 -3 0 -4 11 -1 25
2 15 26 44 53 67 27 22 51 48 54 57 3 9 28 41 55 71 28 30 62 73 77 95 71 107
90 134 136 185 l50 55 71 0 c82 1 122 17 107 43 -5 9 -31 21 -57 27 -56 12
-63 24 -32 59 25 28 111 51 153 40 18 -5 34 6 79 51 125 127 181 316 131 439
-7 17 -16 70 -20 118 -6 76 -4 97 16 155 65 197 153 312 249 328 25 4 68 13
95 21 28 7 64 11 80 8 17 -3 57 -10 90 -15z m359 -30 l38 -13 -4 -53 c-3 -29
-7 -56 -11 -59 -8 -9 -78 16 -82 30 -8 25 -14 99 -9 108 3 5 11 7 17 4 7 -3
29 -10 51 -17z m1165 -48 c-25 -25 -27 -33 -19 -58 5 -15 8 -46 6 -68 -1 -22
-3 -57 -4 -78 -2 -29 -7 -40 -21 -44 -11 -3 -22 -14 -24 -25 -6 -20 -6 -20
-38 3 -74 56 -116 83 -142 94 l-29 12 51 22 c57 24 177 110 204 147 10 13 25
24 32 24 8 0 1 -13 -16 -29z m802 -4 c53 -13 102 -28 110 -32 8 -5 50 -32 94
-61 109 -72 119 -97 119 -289 1 -155 -10 -205 -64 -285 l-30 -45 0 32 c0 18
-9 56 -21 85 -11 29 -22 77 -25 105 -5 73 -67 230 -107 272 -49 52 -97 69
-171 64 -83 -7 -121 12 -180 88 l-47 60 43 20 c54 25 139 21 279 -14z m-1766
-8 c33 -7 61 -13 63 -14 2 -2 -37 -113 -43 -123 -1 -1 -22 5 -46 14 -24 8 -55
18 -68 20 -38 8 -41 12 -35 52 10 68 14 74 42 68 15 -3 54 -11 87 -17z m1050
7 c28 -7 68 -22 90 -33 40 -21 131 -110 173 -170 21 -30 22 -32 5 -62 -22 -38
-49 -40 -120 -6 -57 26 -64 38 -33 55 22 12 50 60 50 86 0 9 -15 31 -34 50
-53 53 -117 45 -156 -18 l-18 -30 -26 38 c-30 45 -32 61 -9 86 19 21 15 21 78
4z m-782 -41 l67 0 -5 -50 c-3 -27 -6 -63 -8 -78 l-2 -29 -75 6 c-89 8 -168
24 -176 38 -3 5 4 36 16 68 l22 59 47 -7 c25 -4 76 -7 114 -7z m472 -40 c-38
-24 -77 -44 -85 -42 -24 4 -23 31 2 58 19 20 34 25 88 27 l65 2 -70 -45z
m-152 12 c-4 -6 -6 -23 -5 -38 2 -26 1 -26 -70 -31 -40 -3 -88 -12 -105 -22
-31 -16 -33 -16 -34 1 0 10 -2 27 -4 38 -2 11 -2 30 1 42 6 20 13 22 87 25
102 4 139 -1 130 -15z m-683 -80 c69 -25 141 -49 160 -53 19 -4 40 -9 45 -11
27 -8 103 -19 128 -18 34 2 34 -2 -4 -43 -21 -23 -37 -32 -50 -29 -10 3 -19 1
-19 -4 0 -5 9 -9 20 -9 13 0 18 -5 13 -15 -4 -12 -15 -14 -42 -11 -20 3 -58 8
-86 12 -57 7 -66 9 -152 25 -56 11 -63 15 -63 36 0 14 4 21 10 18 6 -3 10 -1
10 4 0 6 -4 11 -10 11 -5 0 -16 13 -25 30 l-15 29 67 -25 c38 -14 72 -30 78
-35 12 -12 25 -12 25 1 0 6 -12 15 -27 21 -144 53 -159 60 -188 96 -16 21 -23
33 -15 27 8 -6 71 -31 140 -57z m1218 40 c4 -21 -25 -34 -40 -19 -8 8 -8 16 2
27 16 19 34 15 38 -8z m55 -23 c-4 -10 -9 -12 -15 -6 -12 12 -1 35 12 27 5 -3
6 -13 3 -21z m1185 -41 c190 -104 354 -243 419 -353 62 -105 78 -232 40 -320
-16 -39 -15 -41 -46 66 -12 43 -41 102 -72 150 -65 99 -219 257 -245 252 -37
-7 -26 -37 37 -103 34 -36 60 -67 57 -70 -3 -3 -70 26 -150 64 -172 83 -213
120 -205 183 7 56 62 168 82 168 9 0 47 -17 83 -37z m-1703 0 c58 -14 171 -80
208 -121 16 -17 15 -19 -13 -40 -24 -18 -30 -30 -30 -60 0 -61 -9 -67 -97 -66
-43 0 -90 4 -104 8 -21 6 -27 4 -31 -11 -3 -11 0 -27 7 -37 11 -14 16 -15 33
-5 11 7 27 9 37 5 16 -6 16 -9 -9 -35 -21 -22 -30 -47 -41 -107 -17 -93 -19
-210 -5 -219 6 -3 10 -11 10 -17 0 -7 -24 -8 -72 -4 -61 6 -79 4 -110 -12 -21
-11 -35 -16 -33 -11 9 13 -24 25 -122 44 -90 17 -123 16 -123 -4 0 -12 47 -27
130 -41 96 -16 103 -19 97 -42 -3 -11 -2 -31 3 -44 11 -27 -6 -35 -75 -36
-106 -2 -195 75 -195 167 0 14 -9 59 -21 101 -23 86 -20 147 10 186 10 13 21
44 25 70 4 26 18 62 31 82 13 19 32 54 43 78 21 46 76 106 113 125 151 74 195
80 334 46z m-2639 -32 c36 -22 84 -110 84 -155 0 -35 -24 -75 -62 -105 -48
-38 -192 -101 -266 -116 -103 -22 -125 -14 -189 69 -29 38 -53 73 -53 79 0 21
116 124 188 166 127 76 238 99 298 62z m-1614 -51 c23 -47 23 -80 0 -80 -31 0
-184 -101 -242 -159 -93 -94 -150 -230 -150 -357 0 -51 -2 -56 -15 -44 -17 17
-45 121 -45 165 0 52 29 147 63 204 18 30 64 86 102 125 77 78 231 188 255
184 8 -2 23 -19 32 -38z m5088 -31 l35 -18 -32 6 c-46 8 -91 -14 -112 -54
l-17 -35 -27 32 c-31 37 -33 52 -11 90 l17 27 56 -14 c30 -8 71 -23 91 -34z
m-1440 -55 c30 -4 62 -8 70 -10 8 -1 25 -3 38 -3 28 -1 28 -10 -3 -44 -25 -27
-28 -27 -123 -23 -53 2 -116 7 -139 11 l-42 7 2 47 2 46 70 -12 c38 -7 95 -16
125 -19z m1591 -101 c56 -83 56 -83 -51 -63 -65 12 -68 15 -46 39 26 28 31 82
12 122 l-17 34 26 -30 c15 -16 49 -63 76 -102z m-628 50 c51 -44 63 -59 50
-62 -24 -4 -43 -21 -43 -37 0 -39 110 -84 207 -84 36 0 58 -6 74 -20 l24 -19
-32 -1 c-52 0 -177 27 -224 49 -53 25 -174 132 -194 172 -14 26 -13 29 7 43
37 26 61 19 131 -41z m-2844 -68 c21 -36 18 -43 -10 -22 -16 12 -27 46 -35
107 -4 34 -4 33 10 -7 7 -24 23 -58 35 -78z m3301 101 c0 -2 -3 -11 -6 -20 -9
-23 -24 -20 -24 4 0 11 7 20 15 20 8 0 15 -2 15 -4z m60 -26 c0 -5 -4 -10 -10
-10 -5 0 -10 5 -10 10 0 6 5 10 10 10 6 0 10 -4 10 -10z m-5110 -24 c0 -23
-48 -73 -129 -135 -85 -65 -147 -129 -161 -167 -6 -14 -10 -50 -10 -79 0 -45
8 -70 50 -152 53 -103 56 -116 40 -159 l-11 -27 -34 33 c-71 68 -107 201 -86
315 26 140 107 251 245 336 87 53 96 56 96 35z m5080 -6 c0 -5 -4 -10 -10 -10
-5 0 -10 5 -10 10 0 6 5 10 10 10 6 0 10 -4 10 -10z m-4029 -55 c84 -30 129
-94 129 -183 0 -92 -89 -175 -247 -228 -110 -37 -181 -41 -281 -15 -45 11
-104 21 -132 21 -62 0 -66 17 -14 62 20 18 60 64 90 104 80 109 208 208 307
239 57 18 96 18 148 0z m2540 -1 l106 -7 -7 -36 c-3 -20 -14 -47 -23 -61 -28
-43 -30 -98 -8 -180 12 -41 21 -88 21 -105 1 -62 47 -130 116 -171 16 -10 17
-13 5 -28 -16 -20 -55 -21 -107 -2 -22 7 -79 14 -129 14 -74 1 -104 -4 -175
-27 -91 -31 -234 -49 -260 -32 -8 6 -12 11 -10 13 95 69 120 91 120 103 0 9
24 41 53 73 106 116 135 178 121 267 -4 30 -1 52 10 73 9 17 16 51 16 76 0 41
2 44 23 40 12 -2 70 -7 128 -10z m-1855 -39 c10 -8 26 -15 35 -15 25 0 150
-115 173 -158 44 -83 63 -109 119 -163 31 -31 57 -61 57 -67 0 -5 -13 -15 -30
-21 -94 -35 -85 -34 -130 -5 -22 15 -62 33 -88 39 -59 15 -64 37 -20 86 27 29
33 46 36 85 1 27 -1 54 -5 61 -8 12 -152 85 -190 97 -26 8 -28 15 -11 51 13
29 26 31 54 10z m370 -269 c117 -41 177 -72 219 -115 46 -48 42 -66 -18 -87
-34 -12 -39 -11 -64 10 -16 13 -37 25 -47 27 -11 2 -37 29 -58 59 -20 30 -46
58 -57 61 -20 8 -68 69 -53 69 4 0 40 -11 78 -24z m-14 -207 c-18 -17 -40 -42
-49 -55 -29 -45 -4 -38 51 14 41 39 62 52 85 52 41 0 49 -19 12 -26 -36 -7
-101 -74 -101 -103 0 -21 10 -26 73 -37 21 -3 35 -10 30 -15 -11 -11 -60 -13
-106 -4 -35 7 -40 5 -78 -36 -35 -38 -40 -40 -35 -19 4 14 9 48 13 75 3 28 12
61 18 75 19 36 90 110 106 110 8 0 0 -13 -19 -31z m-2542 1 c0 -5 41 -52 90
-104 179 -187 437 -328 849 -466 1448 -483 3872 -446 5190 79 273 109 523 259
634 383 36 40 69 70 72 66 18 -17 -52 -398 -102 -553 -144 -452 -520 -878
-1054 -1196 -553 -330 -1177 -441 -2389 -426 -1068 13 -1685 119 -2202 377
-365 183 -669 438 -840 706 -136 213 -214 483 -252 879 -26 266 -26 265 -4
265 4 0 8 -4 8 -10z m2286 -25 c54 -22 46 -47 -46 -137 -70 -69 -168 -143
-177 -135 -1 2 6 30 18 62 11 32 18 64 15 71 -3 7 -23 22 -46 34 -22 11 -38
25 -34 31 3 6 34 31 68 56 59 44 63 45 114 39 30 -4 69 -13 88 -21z m2203 -44
c15 -11 53 -31 85 -45 58 -26 59 -27 41 -46 -10 -11 -26 -22 -37 -26 -27 -8
-213 -185 -353 -335 -63 -67 -128 -112 -181 -123 -28 -6 -35 -3 -53 22 -12 17
-21 36 -21 44 0 8 -39 68 -86 134 -47 65 -99 146 -116 179 -17 33 -46 74 -64
91 l-33 32 52 6 c29 4 81 17 117 29 78 26 237 29 337 7 61 -13 64 -13 86 8 18
17 36 22 78 23 30 0 63 4 74 9 31 13 45 12 74 -9z m-1009 -66 c0 -8 -4 -15 -9
-15 -13 0 -22 16 -14 24 11 11 23 6 23 -9z m117 -11 c81 -24 173 -114 116
-114 -9 0 -34 -17 -55 -37 -49 -48 -60 -35 -19 23 18 25 30 48 27 51 -10 11
-55 -38 -76 -83 -22 -45 -50 -65 -50 -36 0 38 21 88 52 119 17 18 28 36 25 40
-13 12 -62 -32 -82 -75 -11 -23 -26 -41 -32 -42 -23 0 -13 32 23 77 46 56 36
69 -14 20 -21 -20 -43 -37 -50 -37 -27 0 39 108 66 109 8 1 39 -6 69 -15z
m133 -164 c0 -11 -33 -30 -51 -30 -8 0 -5 7 6 20 19 21 45 27 45 10z m30 -49
c0 -12 -21 -27 -47 -34 -29 -7 -29 7 -1 27 25 18 48 21 48 7z m-1880 -16 c0
-20 -168 -67 -289 -81 -51 -5 -63 -4 -59 6 14 44 128 78 266 79 45 1 82 -1 82
-4z m408 -67 c-12 -18 -51 -63 -85 -100 -35 -37 -63 -71 -63 -76 0 -19 -117
-96 -165 -108 -60 -16 -75 -17 -55 -4 11 8 4 9 -25 6 -22 -2 -30 -1 -17 1 12
2 20 8 18 12 -3 4 37 29 87 56 51 27 110 65 132 85 22 20 56 46 75 58 19 11
53 39 75 61 47 49 54 52 23 9z m1468 17 c-19 -14 -56 -21 -56 -10 0 7 41 24
60 24 11 0 10 -3 -4 -14z m14 -50 c-7 -8 -17 -15 -22 -15 -6 0 -5 7 2 15 7 8
17 15 22 15 6 0 5 -7 -2 -15z m936 -147 c-3 -13 -6 -51 -6 -85 l0 -61 -67 -7
c-38 -4 -77 -9 -88 -12 -12 -3 6 22 48 64 37 38 67 73 67 77 0 13 31 46 43 46
5 0 7 -10 3 -22z m-2656 -118 c0 -5 -15 -10 -32 -9 -31 1 -32 1 -8 9 35 11 40
11 40 0z m1795 -62 l15 -38 -35 0 c-39 0 -44 15 -25 66 12 32 22 25 45 -28z"/>
<path d="M4061 5241 c-7 -5 -10 -14 -6 -20 5 -9 10 -9 21 0 19 16 57 5 134
-40 78 -44 312 -131 355 -131 20 0 175 -52 232 -78 107 -48 191 -122 264 -230
27 -41 49 -67 49 -60 0 36 -131 193 -212 253 -42 32 -149 77 -244 104 -188 54
-217 63 -279 84 -33 11 -94 38 -135 60 -41 22 -86 46 -100 54 -29 15 -59 17
-79 4z"/>
<path d="M4040 5148 c-33 -12 -70 -48 -70 -67 0 -10 14 -1 39 23 39 38 40 38
103 34 66 -5 99 -17 183 -67 28 -17 55 -30 60 -30 19 -1 -40 39 -115 76 -79
39 -151 50 -200 31z"/>
<path d="M3655 5034 c-104 -53 -118 -181 -30 -264 36 -34 41 -18 6 19 -88 94
-50 217 76 249 29 8 61 11 73 8 52 -15 64 -16 35 -1 -46 22 -105 18 -160 -11z"/>
<path d="M3993 5020 c-22 -9 -39 -43 -28 -59 6 -11 94 -52 147 -70 20 -6 53
-26 73 -44 31 -27 37 -38 32 -58 -12 -46 -29 -58 -88 -63 -30 -2 -72 -11 -93
-20 -21 -9 -54 -16 -74 -16 -68 -1 -91 -4 -86 -12 3 -4 34 -6 69 -4 57 3 64 2
69 -16 3 -15 11 -19 26 -15 17 4 24 -3 41 -43 30 -71 67 -102 115 -98 31 2 39
7 39 23 0 15 -7 20 -30 21 -16 0 -36 1 -43 2 -15 2 -64 110 -56 123 3 5 23 9
45 9 31 0 47 7 70 29 16 16 30 37 30 45 1 9 2 22 3 29 1 7 17 12 46 12 38 0
45 3 45 20 0 15 -10 22 -37 29 -26 7 -38 16 -43 33 -6 26 -63 71 -128 102 -42
19 -118 52 -121 50 0 0 -11 -4 -23 -9z m88 -52 c39 -11 53 -28 24 -28 -17 0
-75 27 -75 35 0 7 9 6 51 -7z"/>
<path d="M4289 5012 c8 -15 7 -31 -4 -61 -18 -51 0 -55 21 -5 19 45 15 78 -9
82 -16 3 -17 1 -8 -16z"/>
<path d="M3894 5005 c11 -8 22 -12 25 -9 6 6 -19 24 -34 24 -5 -1 -1 -7 9 -15z"/>
<path d="M3693 4999 c-22 -7 -34 -18 -42 -39 -5 -17 -6 -30 -1 -30 4 0 13 14
19 30 9 28 14 30 57 30 26 0 45 2 42 5 -10 11 -43 12 -75 4z"/>
<path d="M4605 4990 c-3 -4 7 -11 22 -15 l27 -6 -31 -15 c-17 -9 -35 -26 -42
-40 -18 -39 -13 -52 7 -19 45 72 94 76 217 17 89 -43 136 -85 194 -174 46 -70
62 -67 18 3 -41 67 -119 145 -170 170 -98 48 -234 93 -242 79z"/>
<path d="M3723 4950 c-13 -5 -23 -13 -23 -18 0 -18 23 -30 44 -23 23 8 62 2
86 -14 8 -5 32 -31 53 -57 31 -39 44 -48 70 -48 38 1 67 20 67 45 0 17 -2 17
-61 -1 -11 -4 -23 6 -37 30 -40 67 -141 111 -199 86z"/>
<path d="M3626 4872 c-6 -10 29 -61 37 -52 2 3 -4 18 -13 33 -10 16 -20 24
-24 19z"/>
<path d="M4618 4819 c-31 -5 -73 -15 -92 -23 -30 -12 -36 -20 -36 -44 0 -17 9
-37 23 -50 20 -18 37 -22 132 -26 111 -4 159 -15 205 -46 44 -30 120 -54 132
-42 20 20 -13 84 -71 142 -79 77 -170 105 -293 89z m112 -74 l0 -35 -71 0
c-74 0 -109 11 -109 35 0 19 51 33 123 34 l57 1 0 -35z m205 -91 c20 -21 14
-27 -19 -18 -26 6 -32 15 -19 27 10 11 20 8 38 -9z"/>
<path d="M5058 4585 c12 -9 20 -21 17 -26 -4 -5 6 -9 22 -9 27 0 27 0 8 19
-11 10 -31 22 -45 26 l-25 7 23 -17z"/>
<path d="M4444 4579 c-4 -7 -3 -14 2 -16 75 -26 98 -78 38 -87 -11 -2 -19 -11
-19 -22 0 -14 8 -20 31 -22 39 -4 57 17 58 70 1 32 -4 44 -24 59 -34 25 -76
34 -86 18z"/>
<path d="M4300 4546 c0 -18 22 -31 72 -40 20 -4 39 -13 42 -21 7 -19 30 -19
44 -2 20 24 -12 54 -65 62 -27 3 -58 9 -70 12 -17 4 -23 1 -23 -11z"/>
<path d="M5020 4545 c7 -9 15 -13 17 -11 7 7 -7 26 -19 26 -6 0 -6 -6 2 -15z"/>
<path d="M4595 4502 c25 -24 162 -77 145 -56 -7 8 -16 14 -20 14 -5 0 -30 10
-57 22 -26 12 -57 26 -68 30 l-20 9 20 -19z"/>
<path d="M1938 4574 c-15 -33 -1 -58 35 -62 34 -4 55 34 38 67 -17 30 -58 28
-73 -5z"/>
<path d="M2316 4491 c-22 -24 -13 -59 17 -71 42 -15 77 46 45 78 -18 18 -42
15 -62 -7z"/>
<path d="M2185 4463 c-3 -10 -3 -68 1 -130 4 -65 3 -113 -2 -113 -5 0 -41 9
-79 20 -100 29 -134 25 -120 -12 7 -17 160 -61 218 -62 l42 -1 -4 140 c-2 77
-7 148 -12 158 -12 22 -35 22 -44 0z"/>
<path d="M2520 4081 c-21 -40 13 -70 49 -45 25 18 26 27 5 48 -21 21 -41 20
-54 -3z"/>
<path d="M2810 4015 c-26 -31 13 -82 44 -56 19 16 21 42 4 59 -16 16 -33 15
-48 -3z"/>
<path d="M2717 3993 c-4 -3 -7 -48 -7 -100 0 -51 -2 -93 -5 -93 -3 0 -32 7
-64 16 -63 18 -94 14 -85 -9 6 -17 166 -62 188 -54 18 7 20 46 10 170 -6 72
-17 91 -37 70z"/>
<path d="M2504 3729 c-11 -19 11 -30 107 -55 110 -28 129 -29 129 -10 0 20
-10 25 -108 52 -97 27 -118 29 -128 13z"/>
<path d="M3487 3793 c-15 -15 -7 -63 13 -73 40 -21 82 27 55 63 -12 17 -55 23
-68 10z"/>
<path d="M3845 3690 c-15 -48 25 -81 64 -53 39 27 20 73 -30 73 -19 0 -30 -6
-34 -20z"/>
<path d="M3733 3679 c-8 -8 -9 -48 -6 -127 l6 -115 -24 7 c-147 40 -179 43
-179 12 0 -10 27 -24 83 -40 182 -56 178 -59 171 117 -7 145 -18 179 -51 146z"/>
<path d="M3206 3425 c-4 -24 -11 -47 -17 -50 -12 -8 -12 -25 1 -25 14 0 28 32
36 79 4 25 3 41 -4 41 -5 0 -13 -20 -16 -45z"/>
<path d="M3470 3350 c0 -21 47 -38 197 -75 76 -18 103 -16 103 9 0 15 -15 21
-157 61 -113 31 -143 32 -143 5z"/>
<path d="M3130 3263 c-8 -3 -30 -19 -48 -34 -18 -16 -37 -29 -42 -29 -6 0 -10
-4 -10 -10 0 -20 38 -10 75 20 21 17 46 30 56 30 11 0 19 7 19 15 0 15 -22 18
-50 8z"/>
<path d="M3456 3142 c-8 -13 10 -52 24 -52 13 0 12 10 -4 39 -8 15 -16 20 -20
13z"/>
<path d="M3294 3035 c46 -45 64 -53 82 -36 5 5 22 11 37 13 15 2 29 8 30 13 3
14 -43 19 -56 6 -19 -19 -48 -12 -79 19 -16 17 -36 30 -44 30 -9 0 4 -19 30
-45z"/>
<path d="M3107 2839 c7 -7 15 -10 18 -7 3 3 -2 9 -12 12 -14 6 -15 5 -6 -5z"/>
<path d="M4070 3979 c14 -6 32 -12 40 -14 8 -2 34 -8 58 -13 23 -5 42 -7 42
-3 0 6 -74 26 -140 37 l-25 4 25 -11z"/>
<path d="M4222 3946 c3 -4 21 -10 40 -12 18 -3 39 -7 46 -9 6 -2 12 0 12 5 0
6 -8 10 -19 10 -10 0 -34 3 -52 6 -19 4 -31 4 -27 0z"/>
<path d="M4354 3696 c-9 -23 3 -46 23 -46 28 0 45 16 41 36 -4 25 -56 32 -64
10z"/>
<path d="M4449 3628 c-7 -13 -23 -41 -36 -63 -49 -86 -57 -105 -47 -115 14
-14 170 -44 190 -36 30 11 -2 31 -71 45 -36 7 -65 17 -65 22 0 5 14 31 31 58
32 53 42 101 22 108 -6 2 -17 -6 -24 -19z"/>
<path d="M4645 3629 c-9 -28 16 -53 44 -44 25 8 29 50 5 59 -28 11 -43 6 -49
-15z"/>
<path d="M1948 3940 c-28 -29 -30 -35 -26 -87 4 -48 10 -61 37 -85 37 -33 68
-35 121 -8 50 25 64 52 56 103 -9 55 -20 72 -60 91 -53 25 -93 21 -128 -14z
m139 -77 c4 -10 -2 -23 -16 -35 -26 -20 -41 -16 -41 11 0 36 45 56 57 24z"/>
<path d="M1477 3680 c-40 -12 -58 -29 -80 -79 -33 -74 -1 -158 69 -181 46 -15
82 -1 129 51 41 46 45 81 15 139 -30 59 -80 85 -133 70z m89 -103 c7 -20 -13
-67 -30 -67 -24 0 -47 40 -35 62 11 21 57 25 65 5z"/>
<path d="M4479 3141 l-24 -20 23 -1 c12 0 25 7 29 15 9 25 -2 27 -28 6z"/>
<path d="M4470 3060 c0 -5 4 -10 10 -10 5 0 18 -10 30 -22 19 -21 20 -21 20
-2 0 11 -5 25 -12 32 -15 15 -48 16 -48 2z"/>
<path d="M4591 3041 c-40 -10 -39 -32 1 -25 18 4 37 10 41 14 12 11 -14 18
-42 11z"/>
</g>
</svg>
